<svg xmlns="http://www.w3.org/2000/svg" xmlns:xlink="http://www.w3.org/1999/xlink" xmlns:inkscape="http://www.inkscape.org/namespaces/inkscape" version="1.1" width="375" height="375" viewBox="0 0 375 375">
<defs>
<clipPath id="clip_1">
<path transform="matrix(.1,0,0,-.1,0,375)" d="M460.801 459.602H3290.4012V3289.2022H460.801Z"/>
</clipPath>
<clipPath id="clip_2">
<path transform="matrix(.1,0,0,-.1,0,375)" d="M1875 3288.87C1094.14 3288.87 461.133 2655.86 461.133 1875 461.133 1094.14 1094.14 461.133 1875 461.133 2655.86 461.133 3288.87 1094.14 3288.87 1875 3288.87 2655.86 2655.86 3288.87 1875 3288.87Z"/>
</clipPath>
<clipPath id="clip_3">
<path transform="matrix(.1,0,0,-.1,0,375)" d="M460.8 459.6H3290.4V3289.2H460.8Z"/>
</clipPath>
<clipPath id="clip_4">
<path transform="matrix(.1,0,0,-.1,0,375)" d="M460.801 459.602H3290.4012V3289.2022H460.801Z"/>
</clipPath>
<clipPath id="clip_5">
<path transform="matrix(.1,0,0,-.1,0,375)" d="M1875 3288.87C1094.14 3288.87 461.133 2655.86 461.133 1875 461.133 1094.14 1094.14 461.133 1875 461.133 2655.86 461.133 3288.87 1094.14 3288.87 1875 3288.87 2655.86 2655.86 3288.87 1875 3288.87Z"/>
</clipPath>
<clipPath id="clip_6">
<path transform="matrix(.1,0,0,-.1,0,375)" d="M1875 3288.87C1094.14 3288.87 461.133 2655.86 461.133 1875 461.133 1094.14 1094.14 461.133 1875 461.133 2655.86 461.133 3288.87 1094.14 3288.87 1875 3288.87 2655.86 2655.86 3288.87 1875 3288.87Z"/>
</clipPath>
<clipPath id="clip_7">
<path transform="matrix(.1,0,0,-.1,0,375)" d="M539.133 539.652H3216.633V3217.1519H539.133Z"/>
</clipPath>
<clipPath id="clip_8">
<path transform="matrix(.1,0,0,-.1,0,375)" d="M537.6 538.8H3218.4V3217.2H537.6Z"/>
</clipPath>
<clipPath id="clip_9">
<path transform="matrix(.1,0,0,-.1,0,375)" d="M539 539V3217H3217V539Z" clip-rule="evenodd"/>
</clipPath>
<clipPath id="clip_10">
<path transform="matrix(.1,0,0,-.1,0,375)" d="M1020 1018.8H2731.2V2730H1020Z"/>
</clipPath>
<clipPath id="clip_11">
<path transform="matrix(.1,0,0,-.1,0,375)" d="M1875 2729.98C1402.81 2729.98 1020.02 2347.19 1020.02 1875 1020.02 1402.81 1402.81 1020.02 1875 1020.02 2347.19 1020.02 2729.98 1402.81 2729.98 1875 2729.98 2347.19 2347.19 2729.98 1875 2729.98Z"/>
</clipPath>
<clipPath id="clip_12">
<path transform="matrix(.1,0,0,-.1,0,375)" d="M1020 1018.8H2731.2V2730H1020Z"/>
</clipPath>
<clipPath id="clip_13">
<path transform="matrix(.1,0,0,-.1,0,375)" d="M1020 1018.8H2731.2V2730H1020Z"/>
</clipPath>
<clipPath id="clip_14">
<path transform="matrix(.1,0,0,-.1,0,375)" d="M1875 2729.98C1402.81 2729.98 1020.02 2347.19 1020.02 1875 1020.02 1402.81 1402.81 1020.02 1875 1020.02 2347.19 1020.02 2729.98 1402.81 2729.98 1875 2729.98 2347.19 2347.19 2729.98 1875 2729.98Z"/>
</clipPath>
<clipPath id="clip_15">
<path transform="matrix(.1,0,0,-.1,0,375)" d="M1058.4 1059.6H2690.4V2691.6H1058.4Z"/>
</clipPath>
<clipPath id="clip_16">
<path transform="matrix(.1,0,0,-.1,0,375)" d="M1875 2689.51C1425.16 2689.51 1060.49 2324.84 1060.49 1875 1060.49 1425.16 1425.16 1060.49 1875 1060.49 2324.84 1060.49 2689.51 1425.16 2689.51 1875 2689.51 2324.84 2324.84 2689.51 1875 2689.51Z"/>
</clipPath>
<clipPath id="clip_17">
<path transform="matrix(.1,0,0,-.1,0,375)" d="M1058.4 1059.6H2690.4V2691.6H1058.4Z"/>
</clipPath>
<clipPath id="clip_18">
<path transform="matrix(.1,0,0,-.1,0,375)" d="M1058.4 1059.6H2690.4V2691.6H1058.4Z"/>
</clipPath>
<clipPath id="clip_19">
<path transform="matrix(.1,0,0,-.1,0,375)" d="M1875 2689.51C1425.16 2689.51 1060.49 2324.84 1060.49 1875 1060.49 1425.16 1425.16 1060.49 1875 1060.49 2324.84 1060.49 2689.51 1425.16 2689.51 1875 2689.51 2324.84 2324.84 2689.51 1875 2689.51Z"/>
</clipPath>
<clipPath id="clip_20">
<path transform="matrix(.1,0,0,-.1,0,375)" d="M1875 2689.51C1425.16 2689.51 1060.49 2324.84 1060.49 1875 1060.49 1425.16 1425.16 1060.49 1875 1060.49 2324.84 1060.49 2689.51 1425.16 2689.51 1875 2689.51 2324.84 2324.84 2689.51 1875 2689.51Z"/>
</clipPath>
<clipPath id="clip_21">
<path transform="matrix(.1,0,0,-.1,0,375)" d="M1060.49 1062.01H2687.99V2689.51H1060.49Z"/>
</clipPath>
<clipPath id="clip_22">
<path transform="matrix(.1,0,0,-.1,0,375)" d="M1659.36 1305.29H2094.3599V2445.29H1659.36Z" clip-rule="evenodd"/>
</clipPath>
<clipPath id="clip_23">
<path transform="matrix(.1,0,0,-.1,0,375)" d="M1833 3074.62H1890V3204.7613H1833Z"/>
</clipPath>
<clipPath id="clip_24">
<path transform="matrix(.1,0,0,-.1,0,375)" d="M1831.2 3073.2H1891.2V3205.2H1831.2Z"/>
</clipPath>
<clipPath id="clip_25">
<path transform="matrix(.1,0,0,-.1,0,375)" d="M1833 3074.62H1890V3204.7613H1833Z"/>
</clipPath>
<clipPath id="clip_26">
<path transform="matrix(.1,0,0,-.1,0,375)" d="M1840.64 2729.98H1878.1361V3029.101H1840.64Z"/>
</clipPath>
<clipPath id="clip_27">
<path transform="matrix(.1,0,0,-.1,0,375)" d="M1838.4 2727.6H1879.2V3030H1838.4Z"/>
</clipPath>
<clipPath id="clip_28">
<path transform="matrix(.1,0,0,-.1,0,375)" d="M1840.64 2729.98H1878.1361V3029.101H1840.64Z"/>
</clipPath>
<clipPath id="clip_29">
<path transform="matrix(.1,0,0,-.1,0,375)" d="M907.199 2466H2843.999V3154.801H907.199Z"/>
</clipPath>
<clipPath id="clip_30">
<path transform="matrix(.1,0,0,-.1,0,375)" d="M907.2 2466H2844V3154.8H907.2Z"/>
</clipPath>
<clipPath id="clip_31">
<path transform="matrix(.1,0,0,-.1,0,375)" d="M907.199 2466H2843.999V3154.801H907.199Z"/>
</clipPath>
<path id="font_32_53" d="M.5890045 .17399597C.5976715 .09199524 .6143392 .033996583 .63900759 0H.4880066C.47133384 .046000165 .45999656 .097335819 .45399476 .15400696 .44466654 .23199971 .41366578 .272995 .36099244 .2769928 .34832765 .27766419 .33033244 .27799989 .30700685 .27799989H.227005V0H.08900452V.69000247H.34100343C.3789978 .69000247 .4123281 .68833419 .44099427 .68499758 .4956614 .67833456 .5394948 .66016647 .5724945 .63049319 .6054942 .6008301 .621994 .55799868 .621994 .5019989 .621994 .45866395 .60999557 .4228312 .58599856 .39450074 .5620015 .36617027 .5290019 .3460032 .4869995 .33399964 .5463359 .31133525 .5803375 .2580007 .5890045 .17399597M.227005 .3809967H.32200624C.3493398 .3809967 .36800639 .3813324 .37800599 .38200379 .44400535 .38800559 .477005 .42100526 .477005 .4810028 .477005 .51233419 .46916709 .535497 .4534912 .55049136 .43782554 .5654958 .41532899 .57499697 .3860016 .57899478 .3700002 .5809987 .35066734 .58200076 .32800294 .58200076H.227005V.3809967Z"/>
<path id="font_32_54" d="M.31799317 .70399478C.39666749 .70399478 .45683799 .6843262 .49850465 .644989 .5401713 .60566207 .56500247 .55299887 .57299807 .4869995H.43200685C.42799888 .52300009 .41599528 .55099996 .3959961 .57099917 .37599693 .59099838 .34833274 .6009979 .31300355 .6009979 .28433738 .6009979 .2610016 .5939992 .24299622 .58000186 .22500102 .56600448 .21600342 .54566958 .21600342 .5189972 .21600342 .4896698 .22683716 .4666697 .24850464 .44999696 .27017213 .43333436 .30833946 .41867066 .3630066 .40600587 .43833415 .38867188 .49383036 .3623352 .52949526 .32699586 .5651601 .29166667 .58299258 .2460022 .58299258 .19000244 .58299258 .12732952 .55832418 .07765707 .5089874 .040985109 .45966087 .0043233239 .39933268-.014007568 .32800294-.014007568 .24399822-.014007568 .17699687 .0044911706 .1269989 .041488649 .07700094 .0784963 .048670453 .132665 .042007448 .20399475H.18299866C.19033306 .16733296 .20700073 .13900249 .23300171 .119003299 .2590027 .09900411 .29000346 .08900452 .32600404 .08900452 .3579966 .08900452 .38482667 .09700012 .40649415 .11299133 .42816163 .12899272 .43899537 .1499939 .43899537 .17599488 .43899537 .20533245 .4284973 .22899883 .40750123 .24699402 .38650514 .2649994 .35100303 .28000389 .30099488 .29200746 .22366333 .31067405 .16599529 .33550517 .12799073 .36650086 .08999634 .39749656 .070999149 .44266258 .070999149 .5019989 .070999149 .56332907 .09499613 .612325 .14299011 .6489868 .19099427 .68565878 .24932862 .70399478 .31799317 .70399478Z"/>
<path id="font_32_36" d="M.46299745 .20799256H.23100281L.16200257 0H.01499939L.26400758 .69000247H.43699647L.68099978 0H.53100588L.46299745 .20799256M.3480072 .5720062 .26600648 .31700135H.42799378L.3480072 .5720062Z"/>
<path id="font_32_3" d=""/>
<path id="font_32_55" d="M.6289978 .58200076H.39500428V0H.25700379V.58200076H.022994996V.69000247H.6289978V.58200076Z"/>
<path id="font_32_40" d="M.5870056 .10899353V0H.08900452V.69000247H.57699587V.58200076H.227005V.3999939H.55200198V.29100038H.227005V.10899353H.5870056Z"/>
<path id="font_32_48" d="M.83299258 .69000247V0H.6950073V.31900025C.6950073 .42833457 .69567367 .5069987 .6970062 .5549927 .67833968 .47499595 .65700277 .39666749 .6329956 .32000733L.5359955 0H.3860016L.28700257 .32099916C.2616628 .40566508 .24099732 .4833323 .2250061 .55400088 .2263387 .5059967 .227005 .42766319 .227005 .31900025V0H.08900452V.69000247H.30700685L.46299745 .1269989 .6190033 .69000247H.83299258Z"/>
<path id="font_32_44" d="M.227005 0H.08900452V.69000247H.227005V0Z"/>
<path id="font_32_50" d="M.3919983 .70399478C.4973348 .70399478 .5805003 .67149356 .64149478 .6064911 .7024994 .54149886 .7330017 .45433555 .7330017 .34500123 .7330017 .2363383 .7024994 .14933777 .64149478 .083999637 .5805003 .018661499 .4973348-.014007568 .3919983-.014007568 .28666178-.014007568 .20349121 .018661499 .14248657 .083999637 .0814921 .14933777 .050994874 .2363383 .050994874 .34500123 .050994874 .45433555 .081329349 .54149886 .14199829 .6064911 .20266724 .67149356 .28600059 .70399478 .3919983 .70399478M.24749756 .15649414C.28250123 .11150106 .33066813 .08900452 .3919983 .08900452 .45332847 .08900452 .5013275 .11166891 .5359955 .15699768 .57066348 .20233663 .58799746 .2650045 .58799746 .34500123 .58799746 .42566935 .57066348 .48849998 .5359955 .53349307 .5013275 .5784963 .45332847 .6009979 .3919983 .6009979 .32999674 .6009979 .281662 .5784963 .24699402 .53349307 .21233623 .48849998 .19500733 .42566935 .19500733 .34500123 .19500733 .2643331 .21250408 .20149739 .24749756 .15649414Z"/>
<clipPath id="clip_33">
<path transform="matrix(.1,0,0,-.1,0,375)" d="M657.602 1765.2H907.2V1986.001H657.602Z"/>
</clipPath>
<clipPath id="clip_34">
<path transform="matrix(.1,0,0,-.1,0,375)" d="M657.6 1765.2H907.2V1986H657.6Z"/>
</clipPath>
<clipPath id="clip_35">
<path transform="matrix(.1,0,0,-.1,0,375)" d="M657.602 1765.2H907.2V1986.001H657.602Z"/>
</clipPath>
<path id="font_32_21" d="M.27000428 .10899353H.56199648V0H.059005739V.06500244L.29100038 .29200746C.33966575 .34000144 .37349955 .3783315 .39250184 .40699769 .41150413 .43566386 .42100526 .46599833 .42100526 .4980011 .42100526 .52933248 .41233827 .5544993 .39500428 .5735016 .3776703 .59250387 .35333763 .602005 .32200624 .602005 .28799949 .602005 .26216126 .5915019 .24449158 .5704956 .22683208 .5494995 .21566773 .5180003 .21099854 .47599793L.21000672 .46600343H.07299805L.07400513 .47599793C.081339519 .55000308 .10733541 .6066691 .1519928 .6459961 .19666036 .68533328 .257665 .70500186 .3350067 .70500186 .40900169 .70500186 .46616618 .6870015 .50650027 .651001 .5468343 .6150004 .56700137 .56666567 .56700137 .5059967 .56700137 .46333314 .55499777 .4231669 .5309906 .38549806 .5069936 .3478292 .46266175 .29732768 .397995 .23399353L.27000428 .10899353Z"/>
<path id="font_32_19" d="M.31300355 .70399478C.4916636 .70399478 .58099368 .58432516 .58099368 .34498597 .58099368 .105656947 .4916636-.014007568 .31300355-.014007568 .13367208-.014007568 .044006349 .105656947 .044006349 .34498597 .044006349 .58432516 .13367208 .70399478 .31300355 .70399478M.22000122 .15150452C.24000041 .10983785 .2710012 .08900452 .31300355 .08900452 .3550059 .08900452 .38583885 .10983785 .40550233 .15150452 .4251658 .19317119 .43499757 .25767008 .43499757 .34500123 .43499757 .43300376 .4251658 .4976705 .40550233 .53900149 .38583885 .58033248 .3550059 .6009979 .31300355 .6009979 .2703298 .6009979 .23916118 .58033248 .21949768 .53900149 .19983419 .4976705 .19000244 .43300376 .19000244 .34500123 .19000244 .25767008 .20000203 .19317119 .22000122 .15150452Z"/>
<clipPath id="clip_36">
<path transform="matrix(.1,0,0,-.1,0,375)" d="M2858.4 1767.6H3108.002V1988.397H2858.4Z"/>
</clipPath>
<clipPath id="clip_37">
<path transform="matrix(.1,0,0,-.1,0,375)" d="M2858.4 1767.6H3108V1988.4H2858.4Z"/>
</clipPath>
<clipPath id="clip_38">
<path transform="matrix(.1,0,0,-.1,0,375)" d="M2858.4 1767.6H3108.002V1988.397H2858.4Z"/>
</clipPath>
<path id="font_32_20" d="M.46200563 .69000247V0H.32400514V.54499819L.1230011 .43400575V.56399539L.28300477 .6589966C.31966654 .6796672 .35666404 .69000247 .3939972 .69000247H.46200563Z"/>
<path id="font_32_22" d="M.42999269 .3650055C.526001 .34300233 .5740051 .28766886 .5740051 .19900513 .5740051 .13499959 .5491689 .083496097 .49949647 .04449463 .4498342 .005493164 .3856659-.014007568 .30699159-.014007568 .22832744-.014007568 .16582744 .0043233239 .11949158 .040985109 .07316589 .07765707 .046335859 .13132732 .039001466 .20199585L.037994386 .21200562H.17599488L.17799378 .20199585C.18333435 .16666667 .19733684 .13900249 .22000122 .119003299 .2426656 .09900411 .2713318 .08900452 .30599977 .08900452 .34266154 .08900452 .37215678 .09866842 .39448548 .117996219 .41682435 .13733419 .42799378 .16266887 .42799378 .19400025 .42799378 .2639974 .38232932 .29999797 .29100038 .30200196H.26800538V.397995L.29100038 .39900209C.32766215 .4003347 .35699464 .41083274 .3789978 .43049623 .40100099 .4501699 .41200257 .47600303 .41200257 .5079956 .41200257 .53600057 .40316773 .5585022 .38549806 .5755005 .36782838 .5924988 .34399415 .6009979 .31399537 .6009979 .28333537 .6009979 .2586721 .5911662 .2400055 .5715027 .22133892 .5518392 .21033733 .5253398 .20700073 .4920044L.20599365 .48199464H.069000247L.070007327 .4920044C.07599894 .5546672 .10132853 .60566207 .1459961 .644989 .19066365 .6843262 .2516632 .70399478 .32899476 .70399478 .40166728 .70399478 .45800273 .68715927 .4980011 .65348818 .53799948 .6198273 .55799868 .5766652 .55799868 .5240021 .55799868 .4840037 .5469971 .4501699 .5249939 .4225006 .5030009 .39483134 .47133384 .3756663 .42999269 .3650055Z"/>
</defs>
<g>


<g clip-path="url(#clip_1)">
<g clip-path="url(#clip_2)">
<g>
<g clip-path="url(#clip_3)">
<g clip-path="url(#clip_4)">
<g clip-path="url(#clip_5)">
<path transform="matrix(.1,0,0,-.1,0,375)" d="M461.133 461.133H3288.863V3288.863H461.133Z" fill="#ffffff"/>
</g>
</g>
</g>
</g>
</g>
</g>
<g clip-path="url(#clip_6)">
<path transform="matrix(.1,0,0,-.1,0,375)" stroke-width="75" stroke-linecap="butt" stroke-miterlimit="4" stroke-linejoin="miter" fill="none" stroke="#000000" d="M1875 3288.87C1094.14 3288.87 461.133 2655.86 461.133 1875 461.133 1094.14 1094.14 461.133 1875 461.133 2655.86 461.133 3288.87 1094.14 3288.87 1875 3288.87 2655.86 2655.86 3288.87 1875 3288.87Z"/>
</g>
<g clip-path="url(#clip_7)">
<g>
<g clip-path="url(#clip_8)">
<g clip-path="url(#clip_9)">
<path transform="matrix(.1,0,0,-.1,0,375)" d="M3029.86 1195.14 2272.73 1641.32C2278.93 1651.61 2284.78 1662.15 2290.18 1672.96 2321.02 1734.76 2338.45 1804.41 2338.45 1878.17 2338.45 2132.41 2132.36 2338.5 1878.13 2338.5 1877.51 2338.5 1876.9 2338.46 1876.27 2338.46 1875 2338.45 1873.74 2338.36 1872.46 2338.35V3217.08C1873.73 3217.08 1875 3217.13 1876.27 3217.13 1876.89 3217.13 1877.51 3217.15 1878.13 3217.15 2617.63 3217.15 3217.1 2617.68 3217.1 1878.17 3217.1 1664.49 3166.96 1462.55 3077.95 1283.33 3063.01 1253.27 3046.94 1223.87 3029.86 1195.14" fill="#ee3c7b"/>
<path transform="matrix(.1,0,0,-.1,0,375)" d="M1417.79 1878.17C1417.79 1800.65 1437.04 1727.66 1470.88 1663.57 1474.27 1657.14 1477.87 1650.84 1481.55 1644.6L724.391 1198.41C713.168 1217.42 702.398 1236.71 692.102 1256.31 594.465 1442.13 539.133 1653.68 539.133 1878.17 539.133 2615.77 1135.56 3214.02 1872.46 3217.08V2338.35C1620.84 2335.3 1417.79 2130.51 1417.79 1878.17" fill="#ee3c7b"/>
<path transform="matrix(.1,0,0,-.1,0,375)" d="M1878.12 1417.84C2045.7 1417.84 2192.23 1507.46 2272.73 1641.32L3029.86 1195.14C2796.49 802.43 2368.11 539.184 1878.12 539.184 1386.78 539.184 957.336 803.879 724.391 1198.41L1481.55 1644.6C1561.63 1508.93 1709.18 1417.84 1878.12 1417.84"/>
</g>
</g>
</g>
</g>
<g clip-path="url(#clip_10)">
<g clip-path="url(#clip_11)">
<g>
<g clip-path="url(#clip_12)">
<g clip-path="url(#clip_13)">
<g clip-path="url(#clip_14)">
<path transform="matrix(.1,0,0,-.1,0,375)" d="M1020.02 1020.02H2729.97V2729.97H1020.02Z" fill="#ffffff"/>
</g>
</g>
</g>
</g>
</g>
</g>
<g clip-path="url(#clip_15)">
<g clip-path="url(#clip_16)">
<g>
<g clip-path="url(#clip_17)">
<g clip-path="url(#clip_18)">
<g clip-path="url(#clip_19)">
<path transform="matrix(.1,0,0,-.1,0,375)" d="M1060.49 1060.49H2689.51V2689.51H1060.49Z"/>
</g>
</g>
</g>
</g>
</g>
</g>
<g clip-path="url(#clip_20)">
<g clip-path="url(#clip_21)">
<path transform="matrix(.1,0,0,-.1,0,375)" stroke-width="75" stroke-linecap="butt" stroke-miterlimit="4" stroke-linejoin="miter" fill="none" stroke="#000000" d="M1875 2689.51C1425.16 2689.51 1060.49 2324.84 1060.49 1875 1060.49 1425.16 1425.16 1060.49 1875 1060.49 2324.84 1060.49 2689.51 1425.16 2689.51 1875 2689.51 2324.84 2324.84 2689.51 1875 2689.51Z"/>
</g>
</g>
<g clip-path="url(#clip_22)">
<path transform="matrix(.1,0,0,-.1,0,375)" d="M1817.08 1307.77C1813.73 1308.91 1799.55 1309.8 1785.59 1309.74 1752.55 1309.61 1730.8 1313.48 1697.22 1325.47 1664.05 1337.32 1661.12 1342.84 1662.49 1390.9 1662.98 1408.22 1663.85 1440.67 1664.42 1463.02 1664.99 1485.36 1666.47 1512.34 1667.71 1522.95 1669.58 1538.92 1672.75 1609.26 1674.86 1681.41 1675.68 1709.18 1678.2 1751.21 1680.29 1771.81 1682.84 1796.96 1682.61 1804.63 1678.93 1816.87 1677.33 1822.17 1676.55 1828.57 1677.18 1831.1 1678.29 1835.51 1674.7 1840.16 1662.91 1849.6 1661.11 1851.04 1659.64 1854.69 1659.66 1857.72 1659.69 1864.6 1669.04 1916.23 1670.76 1919.02 1671.46 1920.14 1672.91 1925.88 1673.98 1931.76 1675.05 1937.64 1677.76 1952.05 1680 1963.79 1682.24 1975.52 1685.25 1991.52 1686.69 1999.34 1688.14 2007.16 1690.41 2015.55 1691.74 2018 1693.08 2020.44 1694.17 2024.83 1694.17 2027.76 1694.17 2030.68 1696.38 2041.03 1699.07 2050.75 1701.76 2060.46 1705.06 2073.9 1706.39 2080.6 1707.73 2087.3 1710.56 2096.63 1712.67 2101.31 1714.79 2106 1716.52 2110.79 1716.52 2111.95 1716.52 2113.12 1719.72 2121.8 1723.63 2131.25 1727.54 2140.7 1730.74 2150.18 1730.74 2152.32 1730.74 2154.46 1733.47 2161.59 1736.81 2168.18 1740.14 2174.76 1742.89 2181.33 1742.9 2182.78 1742.92 2184.22 1745.21 2189.7 1748.01 2194.95 1750.8 2200.2 1753.09 2205.75 1753.09 2207.3 1753.09 2208.84 1757.47 2219.37 1762.84 2230.68 1768.2 2241.99 1776.2 2259.47 1780.61 2269.52 1790.62 2292.3 1828.85 2367.43 1838 2382.28 1845.86 2395.04 1875.73 2428.15 1887.16 2436.77 1897.63 2444.64 1899.2 2445.19 1911.77 2445.22 1927.32 2445.26 1961.52 2438.72 1980.62 2432.05 1987.88 2429.52 1999.76 2426.35 2007.03 2425.02 2028.81 2421.02 2033.95 2415.06 2025.22 2403.96 2021.39 2399.09 2021.18 2396.94 2022.45 2375.67 2023.6 2356.46 2023.27 2351.6 2020.5 2346.24 2018.25 2341.88 2017.18 2334.64 2017.18 2323.63 2017.18 2303.45 2016.4 2301.44 2007.88 2299.84 2002.11 2298.76 2000.67 2297.36 1998.95 2291.15 1997.82 2287.08 1996.89 2280.32 1996.88 2276.13 1996.88 2271.95 1996.18 2268.52 1995.34 2268.52 1994.51 2268.51 1987.05 2267.1 1978.77 2265.37 1953.63 2260.13 1945.53 2251.57 1945.84 2230.61 1945.95 2223.41 1947.39 2214.99 1949.08 2211.73 1954.74 2200.77 1958.61 2165.89 1958.65 2125.29 1958.68 2104.06 1958.37 2085.32 1957.97 2083.65 1957.13 2080.05 1962.11 2079.99 1978.3 2083.38 1990.32 2085.89 2003.63 2084.55 2010.45 2080.14 2016.55 2076.18 2020.95 2078.9 2032.26 2093.59 2043.39 2108.06 2052.24 2115.76 2059.5 2117.31 2069.73 2119.49 2073.76 2122.02 2074.42 2126.7 2074.89 2130.06 2076.63 2131.57 2080.52 2132.02 2085.09 2132.54 2086.81 2131.18 2091.43 2123.28 2095.72 2115.96 2096.69 2112.19 2095.86 2106.03 2094.67 2097.1 2085.79 2076.59 2080.58 2070.71 2075.8 2065.33 2060.99 2059.19 2033.44 2051.18 2020.59 2047.44 2009.06 2043.16 2007.81 2041.66 2006.57 2040.16 2004.01 2031.18 2002.13 2021.7 1999.39 2007.91 1995.49 1998.3 1982.62 1973.63 1973.77 1956.67 1963.7 1939.26 1960.23 1934.95L1953.93 1927.12 1954.13 1891.11C1955.13 1704.14 1953.18 1522.29 1950.01 1506.23 1947.57 1493.89 1947.66 1491.85 1950.93 1484.99 1952.92 1480.82 1955.34 1470.05 1956.3 1461.06 1957.26 1452.08 1958.99 1437.87 1960.14 1429.49 1961.3 1421.11 1963.18 1403.02 1964.33 1389.28 1966.7 1360.9 1966.02 1358.36 1952.82 1346.14 1943.95 1337.95 1936.95 1334.84 1923.19 1333.01L1913.5 1331.71 1917.1 1325.6C1920.56 1319.71 1920.55 1319.38 1916.86 1316.67 1911.25 1312.55 1898.09 1311.21 1883.48 1313.28 1872.83 1314.78 1868.68 1314.42 1859.1 1311.17 1845.29 1306.48 1825.51 1304.88 1817.08 1307.76V1307.77ZM1905.04 1750.26C1905.81 1752.57 1903.28 1752.9 1891.35 1752.04 1869.95 1750.51 1867.1 1746.04 1888.02 1746.82 1899.56 1747.26 1904.37 1748.23 1905.04 1750.26ZM1860.7 1784C1860.7 1791.82 1859.81 1799.59 1858.72 1801.26 1857.38 1803.34 1856.75 1797.85 1856.75 1784 1856.75 1770.14 1857.38 1764.65 1858.72 1766.73 1859.81 1768.4 1860.7 1776.17 1860.7 1784ZM1925.61 1784.62C1925.53 1792.1 1924.83 1802.33 1924.05 1807.36L1922.64 1816.5 1918.69 1809.9C1916.51 1806.27 1914.01 1803.29 1913.14 1803.29 1912.26 1803.29 1911.54 1802.27 1911.54 1801.02 1911.54 1799.41 1912.42 1799.46 1914.5 1801.19 1920.23 1805.94 1922.14 1801.52 1920.67 1786.93 1919.91 1779.3 1919.89 1772.08 1920.63 1770.88 1923.65 1765.99 1925.75 1771.8 1925.61 1784.62ZM1896.14 1799.62C1897.86 1802.06 1898.82 1804.51 1898.27 1805.05 1897.26 1806.07 1889.2 1798.26 1889.2 1796.27 1889.2 1793.58 1893.3 1795.56 1896.14 1799.62ZM1774.91 1812.68C1789.75 1814.74 1782.13 1817.93 1763.51 1817.45 1737.39 1816.78 1737.38 1816.79 1727.23 1826.79 1716.25 1837.62 1707.86 1842.42 1701.65 1841.44 1698.12 1840.88 1699.48 1839.57 1708.39 1834.96 1714.54 1831.79 1720.41 1827.7 1721.44 1825.89 1722.48 1824.08 1726.39 1819.5 1730.14 1815.73 1736.95 1808.87 1736.96 1808.86 1751.62 1810.18 1759.69 1810.89 1770.17 1812.02 1774.91 1812.68ZM1839.21 1835.8C1840.45 1854.82 1837.92 1849 1835.49 1827.23 1834.55 1818.79 1834.75 1815.16 1836.08 1816.5 1837.19 1817.62 1838.6 1826.3 1839.21 1835.8ZM1887.11 1820.93C1888.89 1822.55 1882.12 1825.58 1876.63 1825.61 1868.97 1825.65 1860.25 1822.01 1861.84 1819.43 1863.08 1817.42 1884.67 1818.7 1887.11 1820.93ZM1899.97 1831.23C1901.34 1833.69 1895.38 1846.25 1893.41 1845.03 1892.39 1844.4 1892.55 1840.84 1893.79 1836.81 1895.88 1830.01 1898.14 1827.96 1899.97 1831.23ZM1926.76 1873.05 1923.5 1889.17 1930.93 1901.21C1935.02 1907.84 1937.94 1913.69 1937.41 1914.21 1936.89 1914.74 1930.74 1907.34 1923.74 1897.77 1909.25 1877.95 1896.36 1865.8 1884.02 1860.34 1874.27 1856.03 1870.73 1852.05 1876.64 1852.05 1884.89 1852.05 1896.53 1858.98 1908.03 1870.73 1914.59 1877.43 1920.32 1882.55 1920.76 1882.11 1921.2 1881.67 1922.02 1875.04 1922.57 1867.37 1923.13 1859.7 1924.53 1852.48 1925.69 1851.32 1926.85 1850.16 1927.98 1844.59 1928.2 1838.95 1928.52 1830.59 1928.73 1831.3 1929.31 1842.8 1929.72 1850.77 1928.61 1863.95 1926.77 1873.05H1926.76ZM1803.51 1911.98C1811.34 1938.49 1815.3 1957.83 1820.16 1993.24 1821.39 2002.18 1823.78 2016.35 1825.47 2024.73 1828.45 2039.54 1833.28 2072.18 1835.53 2092.79 1836.32 2100.04 1836.05 2102.04 1834.59 2099.77 1833.46 2098.02 1831.57 2088.88 1830.39 2079.45 1829.21 2070.02 1825.94 2049.97 1823.12 2034.89 1820.3 2019.8 1817.13 2002.89 1816.08 1997.3 1815.04 1991.72 1812.7 1978 1810.89 1966.83 1809.08 1955.66 1804.93 1935.83 1801.67 1922.77 1798.41 1909.7 1795.75 1897.86 1795.75 1896.46 1795.75 1890.88 1799.5 1898.38 1803.51 1911.98ZM1931.26 1958.18C1930.78 1960.7 1930.36 1959.11 1930.34 1954.64 1930.32 1950.17 1930.71 1948.11 1931.22 1950.05 1931.73 1951.99 1931.75 1955.65 1931.26 1958.18ZM1927.11 1994.77C1926.54 1996.16 1926.08 1995.02 1926.08 1992.23 1926.08 1989.43 1926.54 1988.29 1927.11 1989.69 1927.67 1991.08 1927.67 1993.37 1927.11 1994.77ZM1874.92 2023.71C1875.97 2030.42 1877.34 2038.19 1877.96 2040.98 1878.58 2043.77 1877.82 2042.4 1876.28 2037.93 1872.63 2027.38 1868.82 2006.8 1869.1 1999.21 1869.28 1994.5 1869.71 1995.17 1871.16 2002.38 1872.18 2007.41 1873.87 2017.01 1874.92 2023.71ZM1954.09 2025.24C1954.15 2029.43 1953.29 2032.86 1952.18 2032.86 1950.97 2032.86 1950.24 2026.41 1950.38 2017.11 1950.58 2003.29 1950.82 2002.36 1952.29 2009.49 1953.21 2013.96 1954.02 2021.05 1954.09 2025.24ZM1926.68 2018.13C1925.9 2024.55 1924.41 2031.18 1923.35 2032.86 1922.08 2034.89 1921.82 2032.59 1922.59 2025.97 1923.21 2020.51 1923.73 2013.88 1923.73 2011.24 1923.73 2008.61 1924.71 2006.45 1925.91 2006.45 1927.37 2006.45 1927.63 2010.29 1926.68 2018.13ZM1912.71 2031.19C1910.56 2032.43 1906.63 2035.84 1903.97 2038.74L1899.14 2044.03 1902.25 2037.61C1905.38 2031.15 1907.96 2029.2 1913.57 2029.02 1915.72 2028.95 1915.46 2029.59 1912.71 2031.18V2031.19ZM1956.21 2055.71C1956.22 2061.02 1955.41 2065.36 1954.4 2065.36 1952.48 2065.36 1950.21 2045.32 1951.78 2042.29 1953.64 2038.71 1956.18 2046.4 1956.21 2055.71ZM1908.26 2144.59C1919.79 2182.02 1928.78 2213.45 1928.23 2214.43 1927.68 2215.41 1926.55 2214.96 1925.71 2213.42 1921.93 2206.48 1881.53 2071.38 1880.52 2062.32L1879.38 2052.16 1883.34 2064.35C1885.51 2071.05 1896.73 2107.16 1908.26 2144.59ZM1925.53 2075.01C1925.3 2086.16 1925.23 2086.33 1923.77 2078.77 1922.38 2071.57 1923.03 2063.33 1924.98 2063.33 1925.41 2063.33 1925.66 2068.59 1925.53 2075.01ZM1923.98 2121.48C1922.33 2129.86 1922.14 2128.25 1922.79 2111.07 1923.73 2085.94 1924.31 2083.13 1925.23 2099.13 1925.62 2105.98 1925.06 2116.03 1923.98 2121.48ZM1957.9 2277.66C1959.17 2280.45 1961.14 2282.73 1962.29 2282.73 1963.43 2282.73 1964.36 2285.37 1964.36 2288.59 1964.36 2291.81 1967.56 2303.28 1971.47 2314.08 1978.77 2334.23 1979.89 2339.62 1976.82 2339.62 1975.86 2339.62 1970.23 2325.68 1964.31 2308.64 1958.4 2291.6 1953.15 2276.52 1952.65 2275.12 1950.93 2270.32 1955.58 2272.57 1957.9 2277.66ZM2009.44 2351.94C2014.14 2353.19 2017.43 2355.5 2018.27 2358.13 2020.01 2363.61 2017.27 2394.47 2015.05 2394.47 2010.88 2394.47 2002.34 2384.02 1993.87 2368.54 1988.81 2359.3 1984.68 2350.73 1984.68 2349.49 1984.68 2347.11 1995.18 2348.14 2009.44 2351.93V2351.94" fill="#ffffff"/>
</g>
<g clip-path="url(#clip_23)">
<g>
<g clip-path="url(#clip_24)">
<g clip-path="url(#clip_25)">
<path transform="matrix(.1,0,0,-.1,0,375)" d="M1833 3074.73H1890V3204.761H1833Z" fill="#ee3c7b"/>
</g>
</g>
</g>
</g>
<g clip-path="url(#clip_26)">
<g>
<g clip-path="url(#clip_27)">
<g clip-path="url(#clip_28)">
<path transform="matrix(.1,0,0,-.1,0,375)" d="M1840.64 2729.98H1878.14V3029.101H1840.64Z" fill="#ee3c7b"/>
</g>
</g>
</g>
</g>
<g clip-path="url(#clip_29)">
<g>
<g clip-path="url(#clip_30)">
<g clip-path="url(#clip_31)">
<use data-text="R" xlink:href="#font_32_53" transform="matrix(20.821333,-20.35524,-20.35524,-20.821333,110.071,122.972)" fill="#ffffff"/>
<use data-text="S" xlink:href="#font_32_54" transform="matrix(24.851687,-15.174198,-15.174198,-24.851687,127.326,106.92401)" fill="#ffffff"/>
<use data-text="A" xlink:href="#font_32_36" transform="matrix(27.645567,-9.142559,-9.142559,-27.645567,146.493,95.69299)" fill="#ffffff"/>
<use data-text=" " xlink:href="#font_32_3" transform="matrix(28.813698,-4.1993834,-4.1993834,-28.813698,170.218,88.95099)" fill="#ffffff"/>
<use data-text="T" xlink:href="#font_32_55" transform="matrix(29.110383,.66992887,.66992887,-29.110383,180.863,87.303989)" fill="#ffffff"/>
<use data-text="E" xlink:href="#font_32_40" transform="matrix(28.24211,7.088539,7.088539,-28.24211,203.534,88.34601)" fill="#ffffff"/>
<use data-text="A" xlink:href="#font_32_36" transform="matrix(25.88462,13.336061,13.336061,-25.88462,225.192,94.212009)" fill="#ffffff"/>
<use data-text="M" xlink:href="#font_32_48" transform="matrix(21.457362,19.683632,19.683632,-21.457362,246.373,105.27301)" fill="#ffffff"/>
</g>
</g>
</g>
</g>
<use data-text="S" xlink:href="#font_32_54" transform="matrix(15.676069,13.171425,13.171425,-15.676069,111.397,276.10389)" fill="#ffffff"/>
<use data-text="I" xlink:href="#font_32_44" transform="matrix(17.046011,11.342802,11.342802,-17.046011,123.586,285.8781)" fill="#ffffff"/>
<use data-text="A" xlink:href="#font_32_36" transform="matrix(18.265686,9.251486,9.251486,-18.265686,131.237,291.02149)" fill="#ffffff"/>
<use data-text="M" xlink:href="#font_32_48" transform="matrix(19.612595,5.879765,5.879765,-19.612595,146.892,298.8109)" fill="#ffffff"/>
<use data-text="O" xlink:href="#font_32_50" transform="matrix(20.362246,2.1457597,2.1457597,-20.362246,168.141,304.6922)" fill="#ffffff"/>
<use data-text=" " xlink:href="#font_32_3" transform="matrix(20.473423,-.2546578,-.2546578,-20.473423,186.955,306.1406)" fill="#ffffff"/>
<use data-text="M" xlink:href="#font_32_48" transform="matrix(20.266606,-2.9137972,-2.9137972,-20.266606,194.266,306.3023)" fill="#ffffff"/>
<use data-text="A" xlink:href="#font_32_36" transform="matrix(19.433295,-6.4476597,-6.4476597,-19.433295,215.943,302.65663)" fill="#ffffff"/>
<use data-text="T" xlink:href="#font_32_55" transform="matrix(18.244803,-9.2926,-9.2926,-18.244803,232.251,296.9309)" fill="#ffffff"/>
<use data-text="T" xlink:href="#font_32_55" transform="matrix(16.704283,-11.840282,-11.840282,-16.704283,246.541,289.3742)" fill="#ffffff"/>
<use data-text="I" xlink:href="#font_32_44" transform="matrix(15.261,-13.65017,-13.65017,-15.261,259.328,279.8566)" fill="#ffffff"/>
<g clip-path="url(#clip_33)">
<g>
<g clip-path="url(#clip_34)">
<g clip-path="url(#clip_35)">
<use data-text="2" xlink:href="#font_32_21" transform="matrix(17.7766,0,0,-17.7766,65.9313,194.051)" fill="#ffffff"/>
<use data-text="0" xlink:href="#font_32_19" transform="matrix(17.7766,0,0,-17.7766,77.90667,194.051)" fill="#ffffff"/>
</g>
</g>
</g>
</g>
<g clip-path="url(#clip_36)">
<g>
<g clip-path="url(#clip_37)">
<g clip-path="url(#clip_38)">
<use data-text="1" xlink:href="#font_32_20" transform="matrix(17.7766,0,0,-17.7766,286.111,193.737)" fill="#ffffff"/>
<use data-text="3" xlink:href="#font_32_22" transform="matrix(17.7766,0,0,-17.7766,298.08638,193.737)" fill="#ffffff"/>
</g>
</g>
</g>
</g>
<path transform="matrix(.1,0,0,-.1,0,375)" d="M539.133 539.133H3217.153V3217.153H539.133Z" fill-opacity="0"/>
<path transform="matrix(.1,0,0,-.1,0,375)" d="M1659.36 1304.71H2096.926V2445.29H1659.36Z" fill-opacity="0"/>
</g>
</svg>
