<svg width="44" height="90" viewBox="0 0 44 90" fill="none" xmlns="http://www.w3.org/2000/svg">
<g clip-path="url(#clip0_91_209)">
<path d="M15.3904 113.746C15.0554 113.632 13.6375 113.543 12.2415 113.549C8.93745 113.562 6.76245 113.175 3.40445 111.976C0.0874516 110.791 -0.205547 110.239 -0.0685467 105.433C-0.0195467 103.701 0.0674587 100.456 0.124459 98.2208C0.181459 95.9868 0.32945 93.2888 0.45345 92.2278C0.64045 90.6308 0.957453 83.5968 1.16845 76.3818C1.25045 73.6048 1.50246 69.4018 1.71146 67.3418C1.96646 64.8268 1.94346 64.0598 1.57546 62.8358C1.41546 62.3058 1.33746 61.6658 1.40046 61.4128C1.51146 60.9718 1.15246 60.5068 -0.0265423 59.5628C-0.206542 59.4188 -0.353542 59.0538 -0.351542 58.7508C-0.348542 58.0628 0.586455 52.8998 0.758455 52.6208C0.828455 52.5088 0.973452 51.9348 1.08045 51.3468C1.18745 50.7588 1.45845 49.3178 1.68245 48.1438C1.90645 46.9708 2.20745 45.3708 2.35145 44.5888C2.49645 43.8068 2.72345 42.9678 2.85645 42.7228C2.99045 42.4788 3.09946 42.0398 3.09946 41.7468C3.09946 41.4548 3.32045 40.4198 3.58945 39.4478C3.85845 38.4768 4.18846 37.1328 4.32146 36.4628C4.45546 35.7928 4.73846 34.8598 4.94946 34.3918C5.16146 33.9228 5.33446 33.4438 5.33446 33.3278C5.33446 33.2108 5.65445 32.3428 6.04545 31.3978C6.43645 30.4528 6.75645 29.5048 6.75645 29.2908C6.75645 29.0768 7.02946 28.3638 7.36346 27.7048C7.69646 27.0468 7.97146 26.3898 7.97246 26.2448C7.97446 26.1008 8.20346 25.5528 8.48346 25.0278C8.76246 24.5028 8.99145 23.9478 8.99145 23.7928C8.99145 23.6388 9.42945 22.5858 9.96645 21.4548C10.5025 20.3238 11.3025 18.5758 11.7435 17.5708C12.7445 15.2928 16.5675 7.77976 17.4825 6.29476C18.2685 5.01876 21.2555 1.70776 22.3985 0.845762C23.4455 0.0587625 23.6025 0.00376735 24.8595 0.000767346C26.4145 -0.00323265 29.8345 0.65076 31.7445 1.31776C32.4705 1.57076 33.6585 1.88776 34.3855 2.02076C36.5635 2.42076 37.0775 3.01677 36.2045 4.12677C35.8215 4.61377 35.8005 4.82877 35.9275 6.95577C36.0425 8.87677 36.0095 9.36277 35.7325 9.89877C35.5075 10.3348 35.4005 11.0588 35.4005 12.1598C35.4005 14.1778 35.3225 14.3788 34.4705 14.5388C33.8935 14.6468 33.7495 14.7868 33.5775 15.4078C33.4645 15.8148 33.3715 16.4908 33.3705 16.9098C33.3705 17.3278 33.3005 17.6708 33.2165 17.6708C33.1335 17.6718 32.3875 17.8128 31.5595 17.9858C29.0455 18.5098 28.2355 19.3658 28.2665 21.4618C28.2775 22.1818 28.4215 23.0238 28.5905 23.3498C29.1565 24.4458 29.5435 27.9338 29.5475 31.9938C29.5505 34.1168 29.5195 35.9908 29.4795 36.1578C29.3955 36.5178 29.8935 36.5238 31.5125 36.1848C32.7145 35.9338 34.0455 36.0678 34.7275 36.5088C35.3375 36.9048 35.7775 36.6328 36.9085 35.1638C38.0215 33.7168 38.9065 32.9468 39.6325 32.7918C40.6555 32.5738 41.0584 32.3208 41.1244 31.8528C41.1714 31.5168 41.3455 31.3658 41.7345 31.3208C42.1915 31.2688 42.3634 31.4048 42.8254 32.1948C43.2544 32.9268 43.3515 33.3038 43.2685 33.9198C43.1495 34.8128 42.2615 36.8638 41.7405 37.4518C41.2625 37.9898 39.7815 38.6038 37.0265 39.4048C35.7415 39.7788 34.5885 40.2068 34.4635 40.3568C34.3395 40.5068 34.0835 41.4048 33.8955 42.3528C33.6215 43.7318 33.2315 44.6928 31.9445 47.1598C31.0595 48.8558 30.0525 50.5968 29.7055 51.0278L29.0755 51.8108L29.0955 55.4118C29.1955 74.1088 29.0005 92.2938 28.6835 93.8998C28.4395 95.1338 28.4485 95.3378 28.7755 96.0238C28.9745 96.4408 29.2165 97.5178 29.3125 98.4168C29.4085 99.3148 29.5815 100.736 29.6965 101.574C29.8125 102.412 30.0005 104.221 30.1155 105.595C30.3525 108.433 30.2845 108.687 28.9645 109.909C28.0775 110.728 27.3775 111.039 26.0014 111.222L25.0325 111.352L25.3925 111.963C25.7385 112.552 25.7375 112.585 25.3685 112.856C24.8075 113.268 23.4915 113.402 22.0305 113.195C20.9655 113.045 20.5505 113.081 19.5925 113.406C18.2115 113.875 16.2334 114.035 15.3904 113.747V113.746ZM24.1865 69.4968C24.2635 69.2658 24.0105 69.2328 22.8175 69.3188C20.6775 69.4718 20.3925 69.9188 22.4845 69.8408C23.6385 69.7968 24.1195 69.6998 24.1865 69.4968ZM19.7524 66.1228C19.7524 65.3408 19.6635 64.5638 19.5545 64.3968C19.4205 64.1888 19.3575 64.7378 19.3575 66.1228C19.3575 67.5088 19.4205 68.0578 19.5545 67.8498C19.6635 67.6828 19.7524 66.9058 19.7524 66.1228ZM26.2435 66.0608C26.2355 65.3128 26.1655 64.2898 26.0875 63.7868L25.9465 62.8728L25.5514 63.5328C25.3334 63.8958 25.0835 64.1938 24.9965 64.1938C24.9085 64.1938 24.8365 64.2958 24.8365 64.4208C24.8365 64.5818 24.9245 64.5768 25.1325 64.4038C25.7055 63.9288 25.8965 64.3708 25.7495 65.8298C25.6735 66.5928 25.6715 67.3148 25.7455 67.4348C26.0475 67.9238 26.2575 67.3428 26.2435 66.0608ZM23.2965 64.5608C23.4685 64.3168 23.5645 64.0718 23.5095 64.0178C23.4085 63.9158 22.6024 64.6968 22.6024 64.8958C22.6024 65.1648 23.0125 64.9668 23.2965 64.5608ZM11.1735 63.2548C12.6575 63.0488 11.8955 62.7298 10.0335 62.7778C7.42145 62.8448 7.42045 62.8438 6.40545 61.8438C5.30745 60.7608 4.46846 60.2808 3.84746 60.3788C3.49446 60.4348 3.63046 60.5658 4.52146 61.0268C5.13646 61.3438 5.72345 61.7528 5.82645 61.9338C5.93045 62.1148 6.32146 62.5728 6.69646 62.9498C7.37746 63.6358 7.37845 63.6368 8.84445 63.5048C9.65145 63.4338 10.6995 63.3208 11.1735 63.2548ZM17.6035 60.9428C17.7275 59.0408 17.4745 59.6228 17.2315 61.7998C17.1375 62.6438 17.1574 63.0068 17.2904 62.8728C17.4014 62.7608 17.5425 61.8928 17.6035 60.9428ZM22.3935 62.4298C22.5715 62.2678 21.8945 61.9648 21.3455 61.9618C20.5795 61.9578 19.7075 62.3218 19.8665 62.5798C19.9905 62.7808 22.1495 62.6528 22.3935 62.4298ZM23.6795 61.3998C23.8165 61.1538 23.2205 59.8978 23.0235 60.0198C22.9215 60.0828 22.9375 60.4388 23.0615 60.8418C23.2705 61.5218 23.4965 61.7268 23.6795 61.3998ZM26.3585 57.2178L26.0325 55.6058L26.7755 54.4018C27.1845 53.7388 27.4765 53.1538 27.4235 53.1018C27.3715 53.0488 26.7565 53.7888 26.0565 54.7458C24.6075 56.7278 23.3185 57.9428 22.0845 58.4888C21.1095 58.9198 20.7555 59.3178 21.3465 59.3178C22.1715 59.3178 23.3355 58.6248 24.4855 57.4498C25.1415 56.7798 25.7145 56.2678 25.7585 56.3118C25.8025 56.3558 25.8845 57.0188 25.9395 57.7858C25.9955 58.5528 26.1354 59.2748 26.2514 59.3908C26.3674 59.5068 26.4805 60.0638 26.5025 60.6278C26.5345 61.4638 26.5555 61.3928 26.6135 60.2428C26.6545 59.4458 26.5435 58.1278 26.3595 57.2178H26.3585ZM14.0335 53.3248C14.8165 50.6738 15.2125 48.7398 15.6985 45.1988C15.8215 44.3048 16.0605 42.8878 16.2295 42.0498C16.5275 40.5688 17.0105 37.3048 17.2355 35.2438C17.3145 34.5188 17.2875 34.3188 17.1415 34.5458C17.0285 34.7208 16.8395 35.6348 16.7215 36.5778C16.6035 37.5208 16.2765 39.5258 15.9945 41.0338C15.7125 42.5428 15.3954 44.2338 15.2904 44.7928C15.1864 45.3508 14.9525 46.7228 14.7715 47.8398C14.5905 48.9568 14.1755 50.9398 13.8495 52.2458C13.5235 53.5528 13.2575 54.7368 13.2575 54.8768C13.2575 55.4348 13.6325 54.6848 14.0335 53.3248ZM26.8085 48.7048C26.7605 48.4528 26.7185 48.6118 26.7165 49.0588C26.7145 49.5058 26.7535 49.7118 26.8045 49.5178C26.8555 49.3238 26.8575 48.9578 26.8085 48.7048ZM26.3935 45.0458C26.3365 44.9068 26.2905 45.0208 26.2905 45.2998C26.2905 45.5798 26.3365 45.6938 26.3935 45.5538C26.4495 45.4148 26.4495 45.1858 26.3935 45.0458ZM21.1745 42.1518C21.2795 41.4808 21.4165 40.7038 21.4785 40.4248C21.5405 40.1458 21.4645 40.2828 21.3105 40.7298C20.9455 41.7848 20.5645 43.8428 20.5925 44.6018C20.6105 45.0728 20.6535 45.0058 20.7985 44.2848C20.9005 43.7818 21.0695 42.8218 21.1745 42.1518ZM29.0915 41.9988C29.0975 41.5798 29.0115 41.2368 28.9005 41.2368C28.7795 41.2368 28.7065 41.8818 28.7205 42.8118C28.7405 44.1938 28.7645 44.2868 28.9115 43.5738C29.0035 43.1268 29.0845 42.4178 29.0915 41.9988ZM26.3505 42.7098C26.2725 42.0678 26.1235 41.4048 26.0175 41.2368C25.8905 41.0338 25.8645 41.2638 25.9415 41.9258C26.0035 42.4718 26.0555 43.1348 26.0555 43.3988C26.0555 43.6618 26.1535 43.8778 26.2735 43.8778C26.4195 43.8778 26.4455 43.4938 26.3505 42.7098ZM24.9535 41.4038C24.7385 41.2798 24.3455 40.9388 24.0795 40.6488L23.5965 40.1198L23.9075 40.7618C24.2205 41.4078 24.4784 41.6028 25.0394 41.6208C25.2544 41.6278 25.2285 41.5638 24.9535 41.4048V41.4038ZM29.3035 38.9518C29.3045 38.4208 29.2235 37.9868 29.1225 37.9868C28.9305 37.9868 28.7035 39.9908 28.8605 40.2938C29.0465 40.6518 29.3005 39.8828 29.3035 38.9518ZM24.5085 30.0638C25.6615 26.3208 26.5605 23.1778 26.5055 23.0798C26.4505 22.9818 26.3375 23.0268 26.2535 23.1808C25.8755 23.8748 21.8355 37.3848 21.7345 38.2908L21.6205 39.3068L22.0165 38.0878C22.2335 37.4178 23.3555 33.8068 24.5085 30.0638ZM26.2355 37.0218C26.2125 35.9068 26.2055 35.8898 26.0595 36.6458C25.9205 37.3658 25.9855 38.1898 26.1805 38.1898C26.2235 38.1898 26.2485 37.6638 26.2355 37.0218ZM26.0805 32.3748C25.9155 31.5368 25.8965 31.6978 25.9615 33.4158C26.0555 35.9288 26.1135 36.2098 26.2055 34.6098C26.2445 33.9248 26.1885 32.9198 26.0805 32.3748ZM29.4725 16.7568C29.5995 16.4778 29.7965 16.2498 29.9115 16.2498C30.0255 16.2498 30.1185 15.9858 30.1185 15.6638C30.1185 15.3418 30.4385 14.1948 30.8295 13.1148C31.5595 11.0998 31.6715 10.5608 31.3645 10.5608C31.2685 10.5608 30.7055 11.9548 30.1135 13.6588C29.5225 15.3628 28.9975 16.8708 28.9475 17.0108C28.7755 17.4908 29.2405 17.2658 29.4725 16.7568ZM34.6265 9.32877C35.0965 9.20377 35.4255 8.97278 35.5095 8.70978C35.6835 8.16178 35.4095 5.07577 35.1875 5.07577C34.7705 5.07577 33.9165 6.12076 33.0695 7.66876C32.5635 8.59276 32.1505 9.44977 32.1505 9.57377C32.1505 9.81177 33.2005 9.70877 34.6265 9.32977V9.32877Z" fill="white"/>
</g>
<defs>
<clipPath id="clip0_91_209">
<rect width="44" height="90" fill="white"/>
</clipPath>
</defs>
</svg>
